<svg width="156" height="28" viewBox="0 0 156 28" fill="none" xmlns="http://www.w3.org/2000/svg">
<g clip-path="url(#clip0_14939_13182)">
<path d="M6.33078 1.1665L16.1849 13.9998L0.389908 26.8332H16.354C18.6165 26.8336 20.8129 26.0634 22.5836 24.6592C24.3544 23.2549 25.5956 21.2937 26.1046 19.0954L27.4263 13.3862C27.7648 11.9237 27.7681 10.4039 27.4358 8.94001C27.1035 7.47612 26.4442 6.10586 25.5071 4.93133C24.5699 3.7568 23.3791 2.80827 22.0232 2.15642C20.6674 1.50457 19.1815 1.16619 17.6763 1.1665H6.33078Z" fill="url(#paint0_linear_14939_13182)"/>
<path d="M16.1849 14.0001L9.16491 26.8335H0.389908L16.1849 14.0001Z" fill="#CC2E3D"/>
<path fill-rule="evenodd" clip-rule="evenodd" d="M39.6408 1.1665H49.6845C57.778 1.1665 62.3902 6.70321 61.1125 13.925L61.0992 13.9981C59.8215 21.2214 53.2371 26.8316 45.1436 26.8316H35.1003L39.6408 1.1665ZM46.0452 21.7364C48.2373 21.772 50.3682 21.0156 52.0443 19.607C53.7204 18.1985 54.8284 16.233 55.1635 14.0735L55.1764 14C55.9808 9.45172 53.4178 6.26211 48.7825 6.26211H44.4048L41.6675 21.7352L46.0452 21.7364Z" fill="white"/>
<path d="M68.5714 1.1665H88.1799L87.2913 6.18976H73.3117L72.3902 11.3966H81.2939L80.4041 16.4199H71.5016L70.5481 21.8099H84.5278L83.6391 26.8332H64.0305L68.5714 1.1665Z" fill="white"/>
<path d="M113.384 9.71C112.651 13.8546 109.946 16.4564 106.458 17.6665L111.127 26.832H104.505L98.3411 13.6321H102.61C105.368 13.6321 107.21 12.1652 107.593 10.0021L107.606 9.92861C108.034 7.50878 106.562 6.26211 103.803 6.26211H98.1745L94.5356 26.8332H88.8699L93.4108 1.1665H105.183C108.457 1.1665 110.834 2.08332 112.226 3.76993C113.409 5.19981 113.826 7.21666 113.397 9.63648L113.384 9.71Z" fill="white"/>
<path d="M120.113 1.1665H125.778L121.237 26.8332H115.572L120.113 1.1665Z" fill="white"/>
<path d="M136.569 1.1665H130.359L136.154 26.8332H141.122L156 1.1665H149.937L140.077 19.1151L136.569 1.1665Z" fill="white"/>
</g>
<defs>
<linearGradient id="paint0_linear_14939_13182" x1="17.6341" y1="-3.25594" x2="12.5357" y2="28.9964" gradientUnits="userSpaceOnUse">
<stop stop-color="#FF6444"/>
<stop offset="1" stop-color="#FF444F"/>
</linearGradient>
<clipPath id="clip0_14939_13182">
<rect width="156" height="28" fill="white"/>
</clipPath>
</defs>
</svg>
